<svg width="2976" height="614" viewBox="0 0 2976 614" fill="none" xmlns="http://www.w3.org/2000/svg">
<path d="M176.239 614C166.936 614 157.113 614 146.917 612.956C97.7238 609.602 60.2895 588.58 35.6558 550.562C-5.05302 487.869 -10.9324 380.673 18.1667 231.881C32.0107 162.658 50.5602 94.4646 73.6855 27.7755L87.6769 32.9191C86.3373 36.5718 -44.2734 400.204 48.0843 542.436C70.4109 576.355 103.678 595.065 147.959 598.047C248.429 605.055 302.533 575.236 330.144 548.475C359.913 519.775 366.462 488.838 366.387 484.813H381.272C381.272 495.771 371.523 529.54 340.414 559.358C313.473 585.002 263.685 614 176.239 614Z" fill="white"/>
<path d="M458.985 28.9826L389.437 403.03L404.069 405.76L473.617 31.7123L458.985 28.9826Z" fill="white"/>
<path d="M638.901 196.938L557.858 586.188L572.429 589.232L653.472 199.982L638.901 196.938Z" fill="white"/>
<path d="M672.03 26.5969L659.144 34.0582L991.069 609.227L1003.96 601.765L672.03 26.5969Z" fill="white"/>
<path d="M1092.18 16.9354L1012.83 428.88L1027.45 431.704L1106.8 19.7597L1092.18 16.9354Z" fill="white"/>
<path d="M1520.72 12.2839L1149.98 599.475L1168.85 611.429L1539.59 24.2373L1520.72 12.2839Z" fill="white"/>
<path d="M1549.03 164.528L1527.49 170.441L1647.34 608.341L1668.87 602.428L1549.03 164.528Z" fill="white"/>
<path d="M1617.27 445.08H1355.31V467.444H1617.27V445.08Z" fill="white"/>
<path d="M1932.09 14.9922L1816.05 584.525L1837.93 588.997L1953.97 19.4649L1932.09 14.9922Z" fill="white"/>
<path d="M2502 179.865L2414.63 603.202L2436.49 607.729L2523.86 184.392L2502 179.865Z" fill="white"/>
<path d="M2529.26 12.9031L2509.99 24.203L2853.2 611.336L2872.47 600.036L2529.26 12.9031Z" fill="white"/>
<path d="M2953.72 3.77903L2871.16 424.894L2893.07 429.203L2975.63 8.08834L2953.72 3.77903Z" fill="white"/>
<path d="M1905.21 601.104V578.74C1911.09 578.74 2271.07 576.056 2323.46 290.771C2337.3 215.704 2324.65 155.099 2285.88 110.595C2202.9 15.2518 2025.7 22.4082 2024.28 22.4827L2023.17 0.119133C2058.3 -0.640272 2093.41 2.23251 2127.95 8.69185C2204.76 22.7064 2265.19 52.8972 2302.77 95.9844C2346.31 145.855 2360.67 212.797 2345.56 294.946C2289.82 598.196 1912.13 601.104 1905.21 601.104Z" fill="white"/>
</svg>
