<svg id="Calque_1" data-name="Calque 1" xmlns="http://www.w3.org/2000/svg" viewBox="0 0 405.1 93.33"><defs><style>.cls-1{fill:#1d1d1b;}</style></defs><path class="cls-1" d="M23.68,87.2c-1.25,0-2.57,0-3.94-.14-6.61-.45-11.64-3.27-14.95-8.37C-.68,70.28-1.47,55.9,2.44,35.94A207.92,207.92,0,0,1,9.9,8.56l1.88.69C11.6,9.74-5.95,58.52,6.46,77.6c3,4.55,7.47,7.06,13.42,7.46C33.38,86,40.65,82,44.36,78.41c4-3.85,4.88-8,4.87-8.54l2,0c0,1.47-1.31,6-5.49,10C42.12,83.31,35.43,87.2,23.68,87.2Z"/><rect class="cls-1" x="32.47" y="32.99" width="51.04" height="2" transform="translate(13.95 84.78) rotate(-79.45)"/><rect class="cls-1" x="54.71" y="56.56" width="53.34" height="2" transform="translate(8.42 125.48) rotate(-78.22)"/><rect class="cls-1" x="110.73" y="2.92" width="2" height="89.12" transform="translate(-8.76 62.29) rotate(-30.03)"/><rect class="cls-1" x="114.27" y="33.93" width="56.28" height="2" transform="translate(81.13 168.14) rotate(-79.08)"/><rect class="cls-1" x="134.1" y="45.18" width="93.2" height="3" transform="translate(44.66 174.44) rotate(-57.69)"/><rect class="cls-1" x="213.25" y="26.23" width="3" height="60.91" transform="translate(-7.35 58.78) rotate(-15.33)"/><rect class="cls-1" x="182.11" y="64.54" width="35.2" height="3"/><rect class="cls-1" x="214.5" y="43.98" width="77.96" height="3" transform="matrix(0.2, -0.98, 0.98, 0.2, 158.02, 284.66)"/><rect class="cls-1" x="302.81" y="56.17" width="57.99" height="3" transform="translate(208.14 370.92) rotate(-78.32)"/><rect class="cls-1" x="360.11" y="1.04" width="3" height="91.27" transform="translate(25.98 189.14) rotate(-30.35)"/><rect class="cls-1" x="364.05" y="32.38" width="57.57" height="3" transform="translate(283.87 412.82) rotate(-78.89)"/><path class="cls-1" d="M256,85.47h0l0-3h0c.79,0,49.16-.36,56.2-38.63,1.86-10.07.16-18.2-5.05-24.17C296,6.88,272.19,7.84,272,7.85l-.15-3A68.65,68.65,0,0,1,285.93,6c10.32,1.88,18.44,5.93,23.49,11.71,5.85,6.69,7.78,15.67,5.75,26.69C307.68,85.08,256.93,85.47,256,85.47Z"/></svg>