<svg width="12" height="9" viewBox="0 0 12 9" fill="none" xmlns="http://www.w3.org/2000/svg">
<path d="M10.6947 7.64148H2.00903V8.70594H10.6947V7.64148Z" fill="black" stroke="black" stroke-width="0.25" stroke-miterlimit="10"/>
<path d="M4.18127 2.3219H3.09521V3.385H4.18127V2.3219Z" fill="black" stroke="black" stroke-width="0.25" stroke-miterlimit="10"/>
<path d="M5.26581 3.38501H4.18115V4.44947H5.26581V3.38501Z" fill="black" stroke="black" stroke-width="0.25" stroke-miterlimit="10"/>
<path d="M6.35192 4.44946H5.26587V5.51393H6.35192V4.44946Z" fill="black" stroke="black" stroke-width="0.25" stroke-miterlimit="10"/>
<path d="M7.43786 4.44946H6.35181V5.51393H7.43786V4.44946Z" fill="black" stroke="black" stroke-width="0.25" stroke-miterlimit="10"/>
<path d="M8.52404 3.38501H7.43799V4.44947H8.52404V3.38501Z" fill="black" stroke="black" stroke-width="0.25" stroke-miterlimit="10"/>
<path d="M9.60858 2.3219H8.52393V3.385H9.60858V2.3219Z" fill="black" stroke="black" stroke-width="0.25" stroke-miterlimit="10"/>
<path d="M11.7807 1.25746V7.64151H10.6946V2.32192H9.60855V1.25746H3.09503V2.32192H2.00898V7.64151H0.924316V1.25746H2.00898V0.192993H10.6946V1.25746H11.7807Z" fill="black" stroke="black" stroke-width="0.25" stroke-miterlimit="10"/>
</svg>
