<svg width="62" height="22" viewBox="0 0 62 22" fill="none" xmlns="http://www.w3.org/2000/svg">
<rect x="54.4399" y="9.34827" width="2.27452" height="7.43103" fill="black"/>
<path d="M58.989 4.88965H61.2635V16.7793H58.989V4.88965Z" fill="black"/>
<path d="M49.8909 13.0638H52.1654V16.7794H49.8909V13.0638Z" fill="black"/>
<path d="M46.3765 3.59009H44.7432V5.2977H46.3765V3.59009Z" fill="black" stroke="black" stroke-width="0.25" stroke-miterlimit="10"/>
<path d="M36.5683 3.59009H34.9329V5.2977H36.5683V3.59009Z" fill="black" stroke="black" stroke-width="0.25" stroke-miterlimit="10"/>
<path d="M44.7431 5.29773V7.00316H43.1077V8.71077H41.4723V17.2466H39.8369V8.71077H38.2035V7.00316H36.5681V5.29773H44.7431Z" fill="black" stroke="black" stroke-width="0.25" stroke-miterlimit="10"/>
<rect x="1.60962" y="8.86206" width="25.2024" height="6.91724" stroke="black" stroke-width="2"/>
<rect x="27.9038" y="10.0913" width="1.51635" height="4.45862" fill="black"/>
<rect x="3.64233" y="10.8345" width="5.30722" height="2.97241" fill="black"/>
<rect x="10.4658" y="10.8345" width="5.30722" height="2.97241" fill="black"/>
</svg>
